# xmcd
#
# Track frame offsets: 
#        150
#        18890
#        31038
#        46139
#        59096
#        74122
#        92788
#        110716
#        124858
#        137127
#        151816
#        165428
#
# Disc length: 2398 seconds
#
# Revision: 0
# Processed by: cddbd v1.5.2PL0 Copyright (c) Steve Scherf et al.
# Submitted via: ExactAudioCopy v0.99pb4
#
DISCID=a1095c0c
DTITLE=Feral Swing Cats - Round 3
DYEAR=2006
DGENRE=Crossover
TTITLE0=Make Love to Me
TTITLE1=Backbay Shuffle
TTITLE2=Don't Roll Those Bloodshot Eyes
TTITLE3=Paper Moon
TTITLE4=Nobody's Business
TTITLE5=Tippin In
TTITLE6=Don't Say Goodnight
TTITLE7=Ain't Nobody Here but Us Chickens
TTITLE8=Always True to You in My Fashion
TTITLE9=Broadway
TTITLE10=I'll be Waiting til then
TTITLE11=Intr. Medley
EXTD=
EXTT0=
EXTT1=
EXTT2=
EXTT3=
EXTT4=
EXTT5=
EXTT6=
EXTT7=
EXTT8=
EXTT9=
EXTT10=
EXTT11=
PLAYORDER=
